<?xml version="1.0" encoding="utf-8"?>
<!-- Generator: Adobe Adobe Illustrator 24.2.0, SVG Export Plug-In . SVG Version: 6.00 Build 0)  -->
<svg version="1.1" xmlns="http://www.w3.org/2000/svg" xmlns:xlink="http://www.w3.org/1999/xlink" x="0px" y="0px" width="1920px"
	 height="1080px" viewBox="0 0 1920 1080" style="enable-background:new 0 0 1920 1080;" xml:space="preserve">
<style type="text/css">
	.st0{fill:#FFFFFF;stroke:#000000;stroke-miterlimit:10;}
</style>
<g id="레이어_1">
</g>
<g id="레이어_2">
	<path class="st0" d="M1050.65,561.73c-0.27-4.47,0.36-10.19,5.31-11.3c2.72-0.61,9.4-1,10.24,1.79c0.21,0.69-1.98,0.93-2.7,1.05
		c-3.21,0.53-7.14,2-8.23,5.2c-0.61,1.81,0.45,4.62-0.72,6.25c-5.2,7.2-22.93-6.16-27.58-11.71c-7.83-9.34-7.02-25.83,3.7-32.44
		c2.37-1.46,8.06-5.36,9.74-2.76c0.73,1.13-3.21,2.49-4.41,3.09c-3.58,1.8-6.19,5.65-8.09,9.08c-5.27,9.47,7.59,18.02,1.98,23.3
		c-3.11,2.92-13.74-5.58-16.73-8.52c-8.85-8.73,5.45-11.04-7.09-25.25c-1.33-1.51-4.69-4.02-6.61-4.62
		c-7.22-2.25-22.85,5.41-20.26,13.17c0.54,1.62,5.03,1.55,6.61,2.2c5.29,2.19,9.81,9.92,13.54,14.22c1.13,1.31,3.63,3.81,4.41,5.35
		c3.31,6.53-10.45,2.87-13.44,5.93c-2.92,2.99-7.14,5.31-8.82,9.34c-0.33,0.8-0.26,3.76-1,3.31c-6.33-3.87,11.18-19.53,17.58-20.26
		c1.99-0.23,5.98-0.65,7.98-0.52c1.23,0.08,3.66,0.56,4.83,0.94c1.35,0.45,3.9,1.77,5.14,2.47c1.85,1.04,5.57,3.08,7.3,4.3
		c3.96,2.81,12.42,8.25,14.96,12.39c0.85,1.38,2.33,4.86,1.57,6.3c-0.45,0.85-2.54,1.42-3.46,1.68c-1.57,0.43-4.79,1.12-6.3,1.73
		c-1.59,0.65-4.58,2.4-6.04,3.31c-1.37,0.85-4.25,4.64-5.41,3.52c-1.71-1.66,3.15-6.63,5.04-8.08c2.04-1.56,6.3-4.63,8.77-5.35
		c2.52-0.74,8.01-1.44,10.5-0.58c1.43,0.49,3.63,2.73,4.72,3.78c12.86,12.34,31.17,54.2,4.51,58.48
		c-20.1,3.22-31.62-28.34-19.86-42.1c28.74-33.6,42.51,24.31,33.89,48.31c-0.66,1.83-2.01,5.54-2.16,7.48
		c-0.15,1.88,0.03,5.82,0.91,7.48c5.2,9.79,19.26,19.57,28.69,24.12c0,0,7.21,2.59,9.73,2.91c1.61,0.2,4.89,0.06,6.49-0.25
		c1.62-0.32,5.47-3.33,6.32-1.91c0.81,1.36-3.17,3.77-4.66,4.32c-2.04,0.76-6.31,1.84-8.48,1.91c-2.03,0.06-6.16-0.21-8.07-0.91
		c-2.72-1.01-7.63-4.25-9.9-6.07c-4.48-3.61-12.78-12.15-16.55-16.55c-0.69-0.81-2.18-2.78-3.24-2.74
		c-1.19,0.04-2.91,2.24-3.41,3.33c-1.02,2.23-2.17,7.06-2.58,9.48c-0.39,2.33-1.09,7.03-1.16,9.4c-0.07,2.27,0,6.84,0.42,9.06
		c0.53,2.82,2.24,8.35,3.41,10.98c1.31,2.94,4.29,8.69,6.15,11.31c1.66,2.33,5.82,6.32,7.48,8.65c0.95,1.34,2.63,4.22,3.12,5.78
		c0.56,1.79,1.1,5.54,1.14,7.42c0.04,2-2.1,6.8-0.49,7.99c0.62,0.46,2.35-0.56,2.85-1.14c1.11-1.27,2.9-4.29,3.18-5.95
		c0.26-1.59,0.02-4.94-0.57-6.44c-0.83-2.13-3.63-5.82-4.97-7.66c-4.16-5.74-13.03-17.14-15.82-23.64c-3.05-7.1-6.9-27.42,0-30.9
		c1.38-0.7,4.01,2.46,4.97,3.67c1.35,1.69,3.88,5.22,5.3,6.85c2.04,2.34,6.36,6.8,8.72,8.81c1.84,1.55,5.55,4.72,7.75,5.71
		c2.54,1.15,8.06,2.8,10.84,2.61c1.92-0.13,5.66-1.42,7.34-2.36c1.76-0.98,5.25-3.17,6.52-4.73c1.29-1.57,3.44-5.24,3.67-7.26
		c0.16-1.42-0.37-4.34-0.98-5.63c-2.43-5.14-10.15-13.72-13.21-18.51c-2.01-3.14-5.52-9.8-6.6-13.37c-0.64-2.12-1.53-6.51-1.47-8.72
		c0.11-4.02,2.27-11.84,2.85-15.82c0.56-3.78,0.98-15.25,0.98-15.25s-0.9-3.31-1.88-3.59c-1.05-0.3-2.89,1.53-3.75,2.2
		c-1.15,0.9-3.58,2.54-4.89,3.18c-1.7,0.83-5.23,2.31-7.09,2.69c-2.38,0.48-9.48-1.77-9.7,0.65c-0.22,2.34,6.86,2.03,9.21,1.96
		c1.81-0.06,5.48,0.21,7.26-0.16c1.51-0.32,4.47-1.44,5.71-2.36c2.5-1.88,7.47-6.3,8.4-9.29c0.66-2.13-0.37-6.68-0.62-8.89
		c-0.39-3.4-0.41-10.31,0.08-13.7c0.4-2.72,2.25-7.93,3.07-10.54c0.22-0.71,0.73-2.11,0.83-2.84c0.44-3.28,0.37-9.96-0.16-13.22
		c-0.37-2.28-1.6-6.75-2.39-8.92c-0.74-2.04-2.27-6.13-3.43-7.97c-1.15-1.83-4.11-5.03-5.58-6.61c-1.53-1.65-4.33-5.26-6.13-6.61
		c-1.68-1.26-5.49-3.13-7.49-3.74c-1.33-0.41-4.31-0.83-5.58-0.24c-1.74,0.82-4.05,4.3-4.62,6.13c-0.75,2.39-1.21,7.46-1.12,9.96
		c0.1,2.55,0.56,7.67,1.27,10.12c0.6,2.05,2.27,6.01,3.43,7.81c1.21,1.88,3.97,5.47,5.66,6.93c1.87,1.62,6.04,4.38,8.29,5.42
		c2.29,1.06,7.04,3.09,9.56,3.27c2.45,0.17,9.69-1.51,9.69-1.51c1.5-0.66,2.69-10.22,2.58-13.7c-0.07-2.14-0.95-6.38-1.51-8.44
		c-0.57-2.08-2.25-6.07-3.27-7.97c-1.4-2.62-4.97-7.42-6.85-9.72c-1.49-1.82-4.84-5.16-6.69-6.61c-1.78-1.4-5.79-3.59-7.81-4.62
		c-1.8-0.92-5.59-2.45-7.57-2.87c-3.02-0.65-9.26-0.55-12.35-0.64c-2.7-0.08-8.12-0.06-10.82-0.07c-9.82-0.03-29.47-0.02-39.3-0.24
		c-2.42-0.05-7.26-0.29-9.67-0.06c-2.24,0.21-6.64,1.3-8.77,2.03c-1.28,0.44-3.67,1.71-4.9,2.26c-1.65,0.73-4.98,2.14-6.55,3.02
		c-2.47,1.37-7.17,4.72-8.87,6.96c-2.23,2.94-5.39,13-8.87,11.8c-1.71-0.59,0.12-5.47,0.67-7.19c0.53-1.62,2.61-4.42,3.71-5.73
		c1.1-1.31,3.76-3.53,5.17-4.49c1.98-1.36,6.37-3.37,8.43-4.61c1.15-0.69,3.41-2.25,4.72-2.58c5.48-1.39,17,0.09,22.58,1.01
		c0.67,0.11,2.32,0.67,2.7,0.11c1-1.47-2.18-4.89-3.26-6.29c-1.13-1.47-4.17-3.78-5.84-4.61c-1.86-0.92-6.04-1.55-8.09-1.91
		c-3.04-0.53-9.19-1.04-12.24-1.46c-1.81-0.25-5.43-0.86-7.19-1.35c-2.35-0.65-6.91-2.53-8.99-3.82c-1.28-0.8-3.43-2.96-4.61-3.91
		c-0.14-0.11-0.44-0.33-0.56-0.47c-0.59-0.7-1.74-2.93-2.58-2.58c-1.41,0.58,0,4.65,0.56,6.07c0.45,1.13,2.25,2.88,3.15,3.71
		c1.41,1.3,4.71,3.4,6.52,4.04c1.66,0.59,5.23,0.7,6.96,1.01c0.81,0.15,2.57,0.56,3.03,1.24c0.56,0.81,0.08,3.04-0.34,3.93
		c-0.17,0.37-0.86,0.87-1.14,1.17c-0.69,0.73-2.02,2.24-2.79,2.87c-1.05,0.87-3.43,2.23-4.61,2.92c-1.93,1.14-5.88,3.26-7.75,4.49
		c-1.04,0.69-3.82,2.88-4.61,1.91c-1.59-1.98,4.4-6.31,6.4-7.86c1.32-1.02,4.55-2.1,6.07-2.81c3.76-1.77,11.25-5.4,15.05-7.08
		c6.59-2.91,20.09-8.29,27.19-9.55c2.99-0.53,9.1-0.12,12.13-0.11c2.6,0.01,7.98,0.13,10.34,1.24c1.87,0.88,4.6,4.38,5.39,6.29
		c0.6,1.46,0.37,4.93,1.35,6.18c0.86,1.1,3.8,1.86,5.17,2.13c1.92,0.38,6.14-0.02,7.75-1.12c0.81-0.55,1.48-2.62,1.57-3.59
		c0.16-1.56-1-4.61-1.57-6.07c-0.75-1.92-2.94-5.45-4.04-7.19c-1.33-2.11-4.35-6.18-6.29-7.75c-1.67-1.35-5.78-2.96-7.86-3.48
		c-2.67-0.67-8.29-0.62-11.01-0.22c-3.97,0.58-11.47,3.67-15.28,4.94c-2.95,0.98-8.85,3.03-11.91,3.59
		c-1.51,0.28-4.61,0.33-6.14,0.26c-1.54-0.07-4.58-0.62-6.12-0.74c-1.09-0.09-3.33-0.13-4.35-0.53c-2.14-0.83-5.62-4.02-7.36-5.52
		c-1.83-1.58-5.16-5.11-6.89-6.81c-1.5-1.48-4.54-4.4-5.99-5.92c-1.59-1.68-4.78-5.37-5.23-7.64c-0.27-1.33,0.95-4.59,2.26-4.95
		c2.74-0.76,7.09,4.89,8.91,7.07c1.38,1.65,3.24,6.06,2.74,8.15c-0.95,3.95-8.72,8.53-11.91,11.05
		c-4.52,3.58-14.57,9.76-18.04,14.36c-1.26,1.67-2.51,6.05-2.09,8.1c0.39,1.9,3.58,4.6,5.03,5.89c1.89,1.68,6.4,4.28,7.98,6.26
		c1.27,1.59,2.61,5.51,3.44,7.36c1.26,2.85,3.63,8.64,4.42,11.66c0.72,2.75,1.27,8.45,1.35,11.29c0.23,7.91-1.45,23.7-2.45,31.54
		c-0.38,2.95-1.6,8.88-2.95,11.54c-1.12,2.21-4.74,5.74-6.51,7.49c-2.11,2.09-6.77,5.79-9.21,7.49c-2.59,1.81-8.23,4.88-11.29,5.65
		c-2.98,0.74-9.29,0.24-12.27-0.49c-2.75-0.67-7.79-3.67-9.82-5.65c-2.28-2.23-4.98-8.18-6.38-11.05c-0.69-1.42-2.23-5.47-0.86-6.26
		c2.72-1.58,7.52,5.78,10.31,7.24c2.09,1.09,6.66,2.43,8.96,2.95c2.55,0.57,7.84,0.97,10.43,0.61c2.1-0.29,6.04-2.09,7.86-3.19
		c1.67-1.01,4.51-3.85,5.52-5.52c1.14-1.88,1.97-6.3,2.33-8.47c0.45-2.73,0.49-8.28,0.61-11.05c0.12-2.85,0.26-8.57,0.49-11.41
		c0.5-6.26,2.45-20.82-2.21-25.04c-0.67-0.6-2.79,0.03-3.56,0.49c-1.19,0.71-2.49,3.35-3.19,4.54c-1.64,2.78-4.24,8.73-5.28,11.78
		c-0.69,2.04-1.5,6.28-2.09,8.35c-1.07,3.76-3.55,11.19-4.54,14.97c-0.49,1.87-1.42,6.43,0,7.73c0.92,0.85,3.84-0.33,4.91-0.98
		c2.48-1.52,5.43-6.87,6.75-9.45c1.35-2.63,2.85-8.4,3.44-11.29c0.56-2.75,0.87-8.37,0.98-11.17c0.09-2.21-0.06-6.65-0.37-8.84
		c-0.43-3.05-2.21-8.99-3.19-11.91c-0.63-1.87-2.26-5.5-3.19-7.24c-0.87-1.63-3.11-4.87-4.79-5.65c-1.15-0.53-3.86,0.01-5.03,0.49
		c-1.59,0.66-4.04,3.31-5.65,3.93c-1.01,0.39-3.22,0.43-4.3,0.37c-1.13-0.06-3.34-0.66-4.42-0.98c-1.12-0.34-3.28-1.26-4.3-1.84
		c-3.16-1.81-8.82-6.53-11.29-9.21c-2.38-2.58-6-8.68-7.86-11.66c-1.53-2.45-4.58-7.97-4.05-10.8c0.29-1.56,3.17-3.56,4.42-4.54
		c3.51-2.77,11.54-6.85,15.34-9.21c2.36-1.47,7.04-4.52,9.21-6.26c4.32-3.47,12.22-11.53,17.18-13.99c1.39-0.69,4.61-1.12,6.14-0.86
		c1.18,0.2,3.2,1.64,4.17,2.33c2.23,1.58,6.16,5.44,8.1,7.36c3.35,3.32,9.62,10.38,12.64,13.99c2.19,2.62,6.31,8.16,8.96,10.31
		c2,1.63,6.76,3.78,9.08,4.91c1.56,0.75,4.91,2.11,6.63,1.96c4.28-0.37,11.57-5.71,15.59-7.24c3.97-1.51,12.22-3.68,16.2-5.16
		c3.19-1.18,9.48-4.02,12.15-6.14c1.94-1.54,4.79-5.71,6.01-7.86c0.88-1.54,2.04-5.03,3.31-6.26c0.94-0.91,3.64-1.77,4.42-2.82
		c1.2-1.62,1.68-6.05,1.1-7.98c-0.32-1.07-2.33-2.7-3.44-2.82c-1.97-0.23-5.34,2.64-7.24,3.19c-1.82,0.53-5.61,0.86-7.49,1.08
		c-1.11,0.13-3.35,0.31-4.41,0.64c-1.45,0.45-4.17,2.04-5.16,3.19c-1.19,1.39-2.7,6.34-1.1,7.24c1.67,0.94,4.36-3.62,6.27-4.39
		c1.38-0.56,4.3-1.35,5.39-2.36c2.17-2,2-8.62,2.45-11.54c0.41-2.66,0.82-8.18,2.09-10.56c0.73-1.36,3.31-3.31,4.66-4.05
		c1.11-0.61,3.89-1.16,5.03-0.61c1.27,0.6,2.51,3.98,1.96,5.28c-0.64,1.52-4.52,2.03-5.89,2.95c-2.86,1.92-9.51,8.32-12.27,6.26
		c-1.68-1.25,1.15-6.23,2.09-8.1c1.52-3.05,6.37-7.99,8.47-10.68c0.88-1.12,2.94-3.81,2.45-5.16c-0.54-1.5-4.42-2.06-6.01-2.09
		c-1.45-0.02-4.17,1.32-5.4,2.09c-1.66,1.03-4.3,3.98-5.65,5.4c-3.26,3.43-9.36,10.84-11.41,15.1c-1.19,2.47-2.08,8.09-3.68,10.31
		c-1.91,2.65-7.75,6.04-10.06,8.35c-1.82,1.81-5.55,6.63-4.79,9.08c0.47,1.49,4.18,2.17,5.65,2.7c1.67,0.61,5.17,1.32,6.87,1.84
		c1.53,0.47,4.56,1.58,5.89,2.45c0.88,0.58,2.87,2.76,3.68,2.09c1.07-0.89-1.37-3.96-2.09-5.16c-0.72-1.21-2.74-3.29-3.93-4.05
		c-1.87-1.19-6.29-2.19-8.47-2.58c-3.57-0.63-10.99-0.58-14.48,0.37c-2.58,0.7-7.4,4.06-8.47,6.51c-0.62,1.41,0.43,4.7,1.23,6.01
		c0.72,1.18,3.24,2.6,4.42,3.31c1.15,0.7,4.39,2.12,5.28,1.1c1.72-1.97-2.63-7.43-3.93-9.7c-1.37-2.4-5.06-6.62-7.12-8.47
		c-1.62-1.46-5.44-3.65-7.36-4.66c-3.99-2.11-12.41-5.37-16.57-7.12c-5.23-2.2-15.76-6.49-21.23-7.98
		c-4.68-1.27-14.91-2.59-19.39-0.74c-2.83,1.17-6.28,6.74-8.68,8.65c-2.1,1.67-6.84,4.29-9.36,5.22
		c-4.04,1.48-12.73,2.53-17.03,2.45c-4.33-0.07-13.9-2.49-17.34,0.15c-1.2,0.92-1.26,4.56-0.77,5.98c0.51,1.46,3.38,3.28,4.76,3.99
		c1.95,1,6.4,1.64,8.59,1.69c4.93,0.1,14.71-2.26,19.33-3.99c3.85-1.44,10.77-6.04,14.11-8.44c2.53-1.82,7.19-6.13,8.9-8.74
		c1.8-2.75,3.5-9.24,4.3-12.43c0.9-3.59,1.77-11.05,1.38-14.73c-0.43-4.05-3.68-11.71-5.52-15.34c-1.36-2.68-4.03-8.72-5.9-11.07
		c-2.13-2.67-6.91-7.9-9.67-9.92c-3.18-2.32-11.57-3.97-15.42-4.79c-3.98-0.85-12.3-1.07-16.26-0.15c-1.97,0.45-6.74,2.82-7.98,1.23
		c-0.95-1.22,1.86-4.4,3.07-5.37c1.59-1.27,5.94-1.83,7.98-1.69c1.36,0.1,4.34,1.58,4.6,2.91c0.43,2.19-3.93,5.58-5.83,6.75
		c-1.88,1.16-6.56,1.68-8.28,3.07c-1.38,1.11-2.95,4.44-3.84,5.98c-1.34,2.34-4.51,6.7-5.83,9.05c-1.3,2.32-3.44,7.2-4.45,9.67
		c-1.24,3.05-4.16,9.04-4.76,12.27c-0.48,2.6-2.13,6.47-1.75,9.09c0.57,3.86-0.53,3.87,1.1,6.44c1.02,1.61,4.47,7.74,2.71,9.2
		c-0.17,0.14-0.93,0.03-1.15,0c-1.58-0.2-3.99-3.37-5.07-4.36c-2.23-2.04-4.14-5.23-4.89-7.3c-0.23-0.64-0.55-1.97-0.62-2.64
		c-0.13-1.37-0.23-4.16,0-5.52c0.47-2.85,1-9.04,1.88-11.8c0.9-2.85,3.31-8.18,4.72-10.76c1.37-2.49,4.36-7.33,5.98-9.67
		c1.79-2.56,5.79-7.37,7.52-9.97c1-1.5,4.47-4.75,3.53-6.29c-1.09-1.76-6.35-0.57-8.28,0.15c-2.92,1.1-8.49,3.97-11.2,5.52
		c-2.34,1.35-7.25,3.8-9.21,5.68c-1.85,1.77-4.57,6.21-5.83,8.44c-1.44,2.54-4.37,7.6-5.52,10.28c-1.09,2.53-3.03,7.73-3.53,10.43
		c-0.31,1.66-1.24,7.56-1.21,9.25c0.06,3.57,1.67,11.77,1.67,11.77s1.05,6.54,1.84,8.59c1.1,2.85,4.49,8.01,6.14,10.59
		c0.75,1.18,2.23,3.32,2.97,4.51c0.41,0.65,1.18,2.17,1.63,2.86c1.17,1.78,3.93,5.05,5.22,6.75c0.5,0.66,2.47,2.11,1.9,2.71
		c-0.83,0.87-3.32-1.62-4.12-2.53c-1.11-1.26-3.22-3.88-4.24-5.22c-1.41-1.84-3.03-3.51-4.29-5.46c-0.18-0.28-1.45-2.34-1.9-3.14
		c-1.1-1.91-3.46-5.68-4.24-7.74c-0.54-1.44-2.03-4.59-1.39-5.99c0.52-1.13,3.1-2.25,4.32-2.49c1.06-0.2,2.89-0.42,3.3-0.41
		c0.03,0,2.02,0.1,2.19,0.11c0.2,0.01,1.01,0.07,1.22,0.09c3.7,0.44,7.88,1.43,10.41,2.27c1.15,0.38,3.44,1.17,4.5,1.75
		c0.57,0.31,1.8,1.07,2.37,1.47c3.1,2.18,6.53,5.56,8.62,7.51c0.68,0.64,2.11,1.82,2.75,2.5c0.92,0.97,2.53,3.15,3.11,4.35
		c0.59,1.24,1.17,4.17,0.69,5.46c-0.64,1.72-3.99,3.83-5.46,4.93c-1.74,1.29-5,4.16-6.52,5.71c-1.91,1.94-5.28,6.23-6.93,8.39
		c-1.45,1.9-4.12,5.9-5.13,8.07c-1.31,2.81-2.8,8.89-3.32,11.95c-0.46,2.75-0.53,8.37-0.65,11.16c-0.08,1.8-0.16,5.39-0.22,7.19
		c-0.08,2.48-0.3,9.7-0.3,12.93c0,3.09,0.25,2.04,0.65,5.71c1.16,10.78,1.35-14.34,1.92-19.28c0.43-3.79,1.49-11.37,2.51-15.04
		c0.8-2.86,3.09-8.37,4.39-11.04c1.21-2.48,4.05-7.52,4.03-10.28c-0.02-2.43-2.97-6.79-4.66-8.53c-1.06-1.09-4.01-2.33-5.51-2.54
		c-1.34-0.19-4.08,0.64-5.25,1.32c-2.18,1.28-5.21,5.52-6.89,7.42c-1.64,1.86-1.26,1.49-5.3,8.37c-4.04,6.88-5.53,9.73-7.37,12.98
		c-1.83,3.25-4,8.59-0.79,14.89c3.67,7.22,7.1,10.03,10.38,13c2.8,2.53,7.61,8.41,9.86,11.45c2.04,2.76,4.7,8.93,6.04,11.45
		c1.23,2.32,4.5,6.33,6.73,7.51c1.43,0.76,4.83,2.02,6.32,1.39c0.79-0.33,1.59-2.01,2.05-2.73c0.62-0.99,2.18-2.75,2.8-3.74
		c0.51-0.8,1.21-2.57,1.69-3.39c0.71-1.2,2.13-3.78,3.34-4.49c1.44-0.84,4.91-1.05,6.58-1.04c2.89,0.01,8.72,0.4,11.48,1.25
		c3.23,1,9.05,4.85,11.38,7.31c2.32,2.45,6.5,11.45,9.39,9.71c2.72-1.64-3.02-9.21-5.01-11.69c-1.49-1.85-5.85-4.18-7.31-6.05
		c-0.31-0.4-0.65-1.37-0.86-1.83c-0.65-1.37-2.37-3.98-2.58-5.48c-0.38-2.66,1.27-7.97,1.57-10.65c0.32-2.91,0.64-8.77,0.83-11.69
		c0.11-1.61,0.31-4.87,0.1-6.47c-0.36-2.79-1.84-8.3-3.03-10.85c-0.69-1.49-2.58-4.2-3.55-5.53c-1.5-2.05-4.48-6.25-6.47-7.83
		c-2.26-1.79-10.08-5.27-8.56-7.72c1.61-2.6,9.16,2.38,11.38,4.49c2.38,2.26,6.62,7.37,8.25,10.23c1.29,2.27,3.47,7.06,4.07,9.6
		c0.9,3.85,1.67,11.8,1.57,15.76c-0.07,2.65-0.7,7.93-1.15,10.54c-0.37,2.15-2.05,6.39-1.77,8.56c0.2,1.54,3.56,4.17,2.82,5.53
		c-1.24,2.3-7.86,0.44-10.44,0c-2.56-0.43-7.74-1.01-10.33-0.94c-2.02,0.05-6.21,0.07-8.04,0.94c-2.02,0.96-5.13,4.35-6.58,6.05
		c-1.02,1.2-3.67,3.36-3.97,4.91c-1.02,5.29,3.97,15.74,6.16,20.66c1.01,2.28,2.34,7.22,3.86,9.18c1.92,2.47,7.08,6.45,10.02,7.51
		c31.07,11.26,3.73-13.15,0.89-9.57c-0.67,0.84,1.23,3.06,2.01,3.8c3.49,3.31,9.79,7.98,14.1,4.61c5.84-4.57-1.34-14.39-8.1-13.2
		c-6.68,1.18,3.01,8.31,6,9.49c1.58,0.62,4.91,1.34,6.53,1.83c0.8,0.24,1.97,0.72,3.36,0.13s2.55-1.07,3.85-2.46
		c1.3-1.39,2.15-2.46,1.75-4.07c-0.4-1.61-0.54-2.68-2.77-3.62s-6.13-1.97-7.56-4.39s-3.49-3.22-2.37-5.77
		c1.12-2.55,1.66-3.45,3.8-2.55c2.15,0.89,3.69,3.76,5.01,4.92c0.73,0.64,2.48,1.67,3.45,1.83c0.54,0.09,1.83,0.24,2.19-0.18
		c1.18-1.37,0.37-5.46,0.09-7.25c-0.19-1.25-1.71-4.36-0.63-5.01c1.72-1.03,5.03,3.31,6.6,4.56c2.89,2.29,9.62,5.52,13.05,6.87
		c3.71,1.46,11.4,3.6,15.09,5.08c2.21,0.89,8.77,1.81,8.57,4.18c-0.11,1.3-3.68,1.73-4.98,1.59c-2.62-0.27-7.7-1.85-10.16-2.79
		c-2.18-0.83-6.51-2.59-8.57-3.69c-1.9-1.01-5.52-3.36-7.32-4.53c-1.25-0.81-3.54-3.61-4.98-3.24c-1.53,0.39-2.56,4.05-2.99,5.58
		c-0.65,2.34-1.76,7.08-2.59,9.36c-0.6,1.65-1.69,5.11-2.89,6.38c-1.2,1.27-4.41,3.06-6.13,3.39c-1.37,0.26-4.95-1.44-5.58-0.2
		c-0.98,1.93,3.93,5.34,5.83,6.38c2.13,1.16,6.65,2.98,8.87,3.98c2.67,1.22,7.91,3.9,10.66,4.93c2.92,1.09,8.88,3.4,12,3.44
		c3.44,0.04,10.35-1.5,13.39-3.11c2.96-1.57,7.94-6.18,10.54-8.3c1.67-1.36,4.96-4.26,6.92-5.14c0.97-0.43,3.16-1.3,4.15-0.92
		c1.83,0.7,3.8,4.51,4.98,6.08c1.51,2,4.85,5.83,6.93,7.23c7.63,5.18,18.74,6.8,27.43,9.26c3.42,0.97,9.9,4.08,13.37,4.87
		c1.58,0.36,5.02,0.38,6.49-0.31c1.3-0.6,2.99-3.25,3.36-4.63c0.37-1.39-0.48-4.28-0.54-5.72c-0.08-1.87,0.05-7.05-1.81-7.27
		c-1.73-0.2-2.4,4.67-2.84,6.36c-0.47,1.81-0.6,5.58-0.68,7.45c-0.14,3.37-0.6,13.49-0.6,13.49s-0.11,17.03,2,22.18
		c0.19,0.46,0.93,1.19,1.27,1.55c0.77,0.81,2.3,2.44,3,3.3c0.65,0.8,1.7,2.64,2.46,3.34c1.75,1.59,5.88,4.18,8.17,4.77
		c1.81,0.47,5.6,0.5,7.46,0.33c2.14-0.19,6.46-0.68,8.5-1.35c2.53-0.83,7.54-2.97,9.57-4.7c1.81-1.54,7.21-5.57,5.83-7.5
		c-0.88-1.22-4.48,0.87-5.81,1.59c-1.51,0.82-4.51,2.52-6.12,3.13c-1.89,0.72-5.82,1.74-7.8,2.09c-2.14,0.38-6.44,1.14-8.61,1.08
		c-1.85-0.05-5.72-0.26-7.33-1.17c-2.12-1.21-4.14-7.42-6.58-7.23c-2.22,0.18-4.25,5.68-4.09,7.89c0.15,2.16,2.42,6.04,3.21,8.05
		c0.69,1.74,1.87,5.34,2,7.21c0.15,2.07-0.43,6.23-0.79,8.27c-0.51,2.93-2,8.7-2.32,11.65c-0.24,2.18-0.59,6.64-0.11,8.78
		c0.73,3.22,3.68,9.24,5.46,12.01c1.37,2.12,4.28,6.32,6.12,8.04c3.51,3.28,11.57,8.66,15.76,11.01
		c5.69,3.18,17.13,9.72,23.39,11.52c5.95,1.71,18.45,3.8,24.58,2.97c6.33-0.86,17.82-7.31,24.1-8.43
		c4.74-0.85,14.48,0.17,19.24,0.95c6.31,1.03,18.67,5.4,25.05,5.11c5.53-0.25,15.73-5.43,21.14-6.65
		c5.95-1.34,18.28-1.89,24.34-1.31c8.33,0.8,24.66,4.78,32.89,6.29c4.79,0.88,14.45,2.07,19.26,2.77
		c3.12,0.45,10.21-0.25,12.44,1.98c14.14,14.13-17.37,30.43,5.33,50.74c3.02,2.7,11.46,5.33,13.68,8.73
		c5.61,8.61,2.1,25.57,10.34,32.37c13.47,11.13,38.19,8.34,55.34,9.96c65.25,6.14,64.21,45,74.31,97.9
		c1.15,6.03,2.25,19.26,6.5,23.69c6.12,6.36,18.72,7.78,22.25-0.91c21.24-52.21-3.48-111.7,73.03-119.68
		c5.04-0.53,14.8-3.51,19.81-4.29c11.81-1.83,30.18,1.84,38.84-7.01c9.21-9.41,0.56-28.48-11.7-30.74
		c-99.66-18.41-84.4,1.99-113.94-96.27c-1.97-6.57-3.96-20.63-7.85-26.28c-5.97-8.67-19.45-8.03-25.04,0.38
		c-5.1,7.67-5.53,19.04-6.74,27.95c-8.73,64.03-18.19,80.34-83.33,94.79c-7.83,1.74-24.08,5.93-31.84,3.91
		c-17.15-4.48,2.33-16.91,9.04-21.77c4.8-3.48,11.88-13.22,16.02-17.46c5.54-5.67,18.24-15.33,23.83-20.95
		c5.06-5.1,13.74-16.61,18.28-22.19c56.01-68.72,105.42-192.92,64.25-274.13c-11.13-21.96-50.92-26.63-51.26-55.47
		c-0.49-41.87,59.83-45.59,75.58-14.27c5.68,11.29-2.86,29.09-10.7,38.28c-21.06,24.65-25.18,13.67-24.65-14.6
		c0.43-23.43-20.47-51.02-34.71-69.09c-16.08-20.41-42.12-38.07-64.88-50.28c-20.65-11.08-49.88-20.26-63.9-39.9
		c-12.41-17.39-8.94-44.32,17.19-46.9c3.37-0.33,14.07,0.1,13.18-3.17c-2.5-9.19-18.39,3.11-29.25-23.91
		c-1.52-3.79-1.65-17.16-5.66-16.36c-6.47,1.28-2.41,15.65-5.86,20.73c-13.81,20.33-31.97,9.43-32.21,15.88
		c-0.33,8.67,23.49,3.91,28.07,17.33c0.95,2.79-4.09,15.02-5.28,17.71c-8.57,19.53-29.05,32.35-42.07,33.78
		c-5.42,0.6-16.27,1.89-21.72,1.95c-65.7,0.7-44.57-77.22-78.59-111.55c-11.71-11.82-21.67-12.25-37.83-10.49
		c-19.66,2.14-43.88,4.94-63.57,7.29c-11.94,1.42-35.97,4.75-47.96,3.79c-9.14-0.73-26.6-7.66-35.76-8.2
		c-16.62-0.99-25.03,4.31-27.55-15.57c-1.48-11.69,1.8-27.01-3.37-38.07c-1.17-2.5-7.15-8.41-7.15-8.41s-5.09,2.04-6.52,3.16
		c-15.46,12.1,2.29,30.47-16.2,48.38c-17.35,16.81-38.32,2.64-51.93,14.83c-3.32,2.97-4.04,12.05-0.53,14.71
		c27,20.45,53.06-10.1,61.2,44.65c0.71,4.76-1.45,15.66,1.84,19.17c26.96,28.78,17.37-40.93,31.52-53.58
		c8.24-7.37,22.14-6.62,32.31-9.19c39.08-9.89,19.46,6.26,8.4,25.48c-7.81,13.58-18.74,29.48-30.99,39.4
		c-35.77,28.91-82.66,42.65-126.86,52.79c-5.39,1.24-16.05,4.32-21.54,4.99c-28.93,3.54-69.32-33.89-29.42-49.12
		c13.52-5.16,21.18,0.45,21.8,14.71c1.16,26.74-38.6,51.97-60.22,36.12c-21.79-15.97-41.86-33-69.05-39.03
		c-134.22-29.76-45.39,165.1-162.78,165.37c-13.42,0.03-65.59-0.76-54.87,20.81c10.75,21.63,43.4,16.57,64.17,21.59
		c56.62,13.69,53.32,27.05,63.68,79.67c2.54,12.91-0.46,35.17,11.89,42.14c43.06,24.31,17.08-88.15,55.17-111.66
		c24.02-14.82,53.38-13.7,79.49-18.74c4.36-0.84,14.1-1.63,17.04-4.96c8.84-10.04,1.81-23.1-8.59-28.37
		c-8.02-4.07-26.8-3.15-35.75-4.05c-129.12-13.03-15.02-177.24-151.46-120.38c-55.48,23.12-99.61,47.45-127.96,101.33
		c-5.99,11.39-21.31,32.31-26.96,43.88c-94.81,194.26,175.48,122.99,190.69,281.09c1.62,16.84-0.68,39.51,8.72,54.19
		c18.64,29.1,50.55-5.95,72.57-14.33c25.6-9.73,56.83-15.31,83.85-16.63c27.09-1.32,32.41-2.91,40.32-29.32
		c3.21-10.71-0.03-26.76,6.35-35.76c9.99-14.1,20.39,2.45,22.78,13.86c1.94,9.3-1.85,21.38,0.91,30.5
		c3.94,13.01,9.1,15.94,23.09,15.66c4.89-0.1,14.49,2.24,19.35,2.73c2.7,0.27,8.39-0.78,10.86,0.34c5.92,2.68,9.42,11.03,6.13,16.66
		c-13.75,23.56-56-17.02-62.18,36.63c-0.79,6.89,2.92,21.67-0.44,27.74c-4.65,8.39-15.96,8.62-21.68,1.77
		c-7.86-9.43-3.22-26.01-4.64-37.44c-3.97-32.03-26.15-28.09-51.71-25.49c-4.09,0.42-12.54-4.27-16.26-2.51
		c-16.3,7.72-15.66,39.72-8.38,54.72c3.47,7.16,8.71,22.81,14.4,28.36c63.19,61.65,159.12,54.35,242.47,63.52
		c20.5,2.25,3.32,32.86,20.32,33.37c8.42,0.25,6.58-7.79,5.8-13.79c-4.24-32.72,41.25-11.32,28.34-29.43
		c-4.93-6.91-21.9-4.68-27.11-12c-3.91-5.49,0.35-17.54-4.99-21.77c-6.79-5.38-14.35,3.04-13.62,10.16
		c3.33,32.89-51.55,30.22-40.48,0.8c7.86-20.89,33.91-32.61,55.14-37.55c21.89-5.09,56.58,23.14,57.51,45
		c0.85,19.91,19.69,34.43,37.55,41.27c37.19,14.24,86.59,12.44,116.19-14.56c31.41-28.64,134.5-78.74,78.87-115.22
		c-15.57-10.21-52.8,30.15-64.54,18.22c-9.45-9.6,7.47-36.5-15.83-49.15c-12.31-6.69-30.79,5.16-37.9,17
		c-5.01,8.33-6.46,40.37-7.65,49.67c-3.75,29.25-2.78,39-2.78,71.25c0,20.84,10.76,48.94,11.43,69.68c0.2,6.25-2.22,19.04-0.33,25
		c3.35,10.61,15.76,18.27,25.58,13.15c3.61-1.88,8.91-11.07,7.03-14.67c-13.16-25.2-27.55,12.9-27.52,27.2
		c0.04,19.5,12.17,39.04,14.5,57.76"/>
</g>
</svg>
