<svg width="17" height="17" viewBox="0 0 17 17" fill="none" xmlns="http://www.w3.org/2000/svg">
<path d="M14.2568 11.8311C13.7605 11.331 12.5583 10.6012 11.9751 10.3071C11.2155 9.92447 11.153 9.89322 10.556 10.3368C10.1578 10.6328 9.89306 10.8972 9.42702 10.7978C8.96098 10.6984 7.94826 10.138 7.06151 9.25401C6.17475 8.37007 5.58181 7.32797 5.4821 6.86349C5.38239 6.39902 5.6512 6.1374 5.94439 5.73825C6.35761 5.17563 6.32635 5.08186 5.97315 4.32232C5.69777 3.73156 4.94667 2.54068 4.44469 2.04682C3.9077 1.51639 3.9077 1.61016 3.56169 1.75394C3.27999 1.87247 3.00974 2.01654 2.75432 2.18435C2.25421 2.51661 1.97665 2.79261 1.78255 3.20739C1.58844 3.62216 1.50124 4.59456 2.50364 6.41558C3.50605 8.23661 4.20933 9.16775 5.66496 10.6193C7.12058 12.0709 8.23989 12.8514 9.87618 13.7691C11.9004 14.9027 12.6768 14.6818 13.0928 14.488C13.5088 14.2942 13.7861 14.0191 14.119 13.519C14.2872 13.264 14.4316 12.9941 14.5503 12.7126C14.6944 12.3678 14.7882 12.3678 14.2568 11.8311Z" stroke="white" stroke-width="1.00189" stroke-miterlimit="10"/>
</svg>
