<svg width="17" height="17" viewBox="0 0 17 17" fill="none" xmlns="http://www.w3.org/2000/svg">
<path d="M9.22934 8.22292L12.1987 5.25352C12.3397 5.11284 12.4189 4.92194 12.4191 4.72282C12.4193 4.52369 12.3404 4.33265 12.1997 4.19172C12.059 4.0508 11.8681 3.97153 11.669 3.97135C11.4699 3.97118 11.2788 4.05011 11.1379 4.19079L8.16849 7.16018L5.19909 4.19079C5.05816 4.04986 4.86703 3.97069 4.66772 3.97069C4.46842 3.97069 4.27729 4.04986 4.13636 4.19079C3.99543 4.33171 3.91626 4.52285 3.91626 4.72215C3.91626 4.92145 3.99543 5.11259 4.13636 5.25352L7.10576 8.22292L4.13636 11.1923C3.99543 11.3332 3.91626 11.5244 3.91626 11.7237C3.91626 11.923 3.99543 12.1141 4.13636 12.255C4.27729 12.396 4.46842 12.4751 4.66772 12.4751C4.86703 12.4751 5.05816 12.396 5.19909 12.255L8.16849 9.28565L11.1379 12.255C11.2788 12.396 11.4699 12.4751 11.6692 12.4751C11.8686 12.4751 12.0597 12.396 12.2006 12.255C12.3415 12.1141 12.4207 11.923 12.4207 11.7237C12.4207 11.5244 12.3415 11.3332 12.2006 11.1923L9.22934 8.22292Z" fill="white"/>
</svg>
