<svg width="17" height="17" viewBox="0 0 17 17" fill="none" xmlns="http://www.w3.org/2000/svg">
<path d="M12.9238 4.24636H5.98476C5.00079 4.24636 4.20312 5.04403 4.20312 6.028V12.967C4.20312 13.951 5.00079 14.7487 5.98476 14.7487H12.9238C13.9077 14.7487 14.7054 13.951 14.7054 12.967V6.028C14.7054 5.04403 13.9077 4.24636 12.9238 4.24636Z" stroke="white" stroke-width="1.00189" stroke-linejoin="round"/>
<path d="M12.1891 4.24647L12.2047 3.49631C12.2034 3.03248 12.0185 2.58803 11.6906 2.26006C11.3626 1.93208 10.9181 1.74725 10.4543 1.74593H3.70283C3.17276 1.74749 2.66485 1.95876 2.29004 2.33357C1.91522 2.70839 1.70396 3.2163 1.70239 3.74636V10.4978C1.70371 10.9617 1.88855 11.4061 2.21653 11.7341C2.5445 12.0621 2.98895 12.2469 3.45277 12.2482H4.20294" stroke="white" stroke-width="1.00189" stroke-linecap="round" stroke-linejoin="round"/>
</svg>
