<?xml version="1.0" encoding="utf-8"?>
<!-- Generator: Adobe Adobe Illustrator 24.2.0, SVG Export Plug-In . SVG Version: 6.00 Build 0)  -->
<svg version="1.1" xmlns="http://www.w3.org/2000/svg" xmlns:xlink="http://www.w3.org/1999/xlink" x="0px" y="0px" width="1920px"
	 height="1080px" viewBox="0 0 1920 1080" style="enable-background:new 0 0 1920 1080;" xml:space="preserve">
<style type="text/css">
	.st0{fill:#FFFFFF;stroke:#000000;stroke-miterlimit:10;}
</style>
<g id="레이어_1">
</g>
<g id="레이어_2">
	<path class="st0" d="M2.3,720.24c41.34,2.43,82.86,1.59,124.07-2.51c13.47-1.34,28.02-3.55,37.48-13.24
		c4.06-4.16,6.83-9.38,9.26-14.66c4.44-9.61,8.01-20.08,6.81-30.59c-1.2-10.51-0.09-13.02-4.69-20.07c-0.73-1.12-11-4.15-12.33-4.06
		c-1.8,0.11-6.41,1.24-7.1,1.4c-7.83,1.84-11.37,3.59-12.57,11.83c-0.98,6.73-1.95,13.88,2.65,18.89
		c5.31,5.77,14.67,4.61,22.07,2.04c7.12-2.47,14.58-6.53,16.98-13.67c1.12-3.36,0.96-7.04,0.12-10.47
		c-2.86-11.65-14.08-20.71-26.07-21.04c-11.99-0.33-23.7,8.1-27.19,19.58c-3.22,10.59,0.14,21.97,4,32.33
		c6.65,17.87,14.87,35.17,24.53,51.61c2.11,3.58,4.34,7.33,4.53,11.48c0.19,4.15-2.5,8.77-6.65,9.11
		c-5.64,0.47-8.89-7.29-6.55-12.45c2.34-5.16,7.74-8.06,12.69-10.82c34.54-19.27,62.53-48.18,93.74-72.48
		c31.21-24.3,68.54-44.8,108.02-42.4c10.68,0.65,21.26,2.97,31.95,2.74c9.29-0.2,18.54-2.32,27.8-1.56
		c23.01,1.9,41.56,21.02,64.42,24.25c7.92,1.12,16.13,0.27,23.84,2.43c6.26,1.75,11.8,5.38,17.22,8.95
		c17.92,11.81,35.84,23.61,53.15,32.32c28.41,12.41,57.4,23.47,86.86,33.13c26.13,8.56,52.85,16.06,80.28,17.96
		c33.09,2.29,66.97-3.88,96.34-19.31c29.37-15.43,53.99-40.29,67.54-70.57c5.74-12.83,9.48-26.48,12.05-40.29
		c8.74-47.02,3.75-96.5-14.21-140.82c-5.61-13.86-12.52-27.3-21.74-39.07c-21.71-27.7-56.42-44.76-91.61-45.02
		c-35.2-0.26-70.15,16.28-92.27,43.66c-10.12,12.53-17.75,27.61-18.75,43.68c-0.79,12.76,2.73,25.76,9.87,36.37
		c5.42,8.06,12.73,14.62,19.96,21.1c21.63,19.37,44.43,39.39,72.56,46.59c36.61,9.37,74.69-4.64,109.87-18.42
		c19.25-7.54,38.69-15.19,55.78-26.83c17.62-12.01,32.2-27.9,48.52-41.63c14.83-12.47,31.11-23.15,48.34-32.82
		c11.37-5.1,23.45-8.63,35.78-10.45c9.23-1.37,18.57-1.78,27.9-2.19c45.6-2.01,91.79-3.97,136.42,5.6c3.76,0.81,8.02,2.1,9.56,5.63
		c1.73,3.97-1.25,8.72-5.21,10.48c-3.96,1.76-8.49,1.37-12.81,0.96c-33.53-3.17-67.19-5.01-100.87-5.5
		c-6.66-0.1-13.42-0.13-19.87,1.53c-6.25,1.61-11.98,4.76-17.63,7.9c-17.84,9.91-38.29,20.32-57.73,14.11
		c14.84-11.88,31.71-21.22,49.65-27.5c10.81-3.79,23.81-8.26,26.49-19.4c1.57-6.52-1.15-13.23-3.81-19.38
		c-2.95-6.83-5.91-13.67-9-20.91c-12.66-19.71-22.61-41.16-29.48-63.55c-1.54-5.02-2.77-10.98,0.49-15.09
		c14.53,2.93,24.52,15.82,33.81,27.36c10.79,13.41,22.4,26.17,34.73,38.17c7.7,7.49,15.9,14.82,25.84,18.88
		c12.8,5.23,27.41,4.48,39.62-0.1c15.9,4.33,32.55-1.32,48.65-4.83c21.86-4.77,44.65-5.65,65.72-13.16
		c21.07-7.51,41.1-23.95,44-46.13c0.32-2.45,0.14-5.46-2.03-6.63c-1.72-0.93-3.84-0.19-5.61,0.63
		c-17.17,7.92-31.12,22.58-38.18,40.11c-0.65,1.62-1.26,3.36-0.95,5.07c0.67,3.69,5.04,5.35,8.78,5.63
		c10.92,0.83,21.33-4.07,31.82-7.21c13.08-3.91,26.96-5.13,40.6-4.12c15.91-2.65,32.28-2.48,48.12,0.49
		c5.07,0.95,10.21,2.25,14.45,5.19c4.24,2.94,7.44,7.85,7.05,12.99c-0.64,8.67-10.2,13.49-18.57,15.82
		c-2.7,0.75-6.05,1.25-7.91-0.85c-2.5-2.83,0.13-7.16,2.79-9.84c6.95-7.02,15.76-13.7,25.61-12.89
		c10.46,0.86,18.82,10.9,19.36,21.38c0.53,10.48-5.74,20.59-14.53,26.33c-6.52,4.26-14.17,6.35-21.69,8.37
		c-33.95,9.11-67.99,17.89-101.89,27.65c-25.99-1.16-52.27,5.11-74.93,17.88c-9.29,5.24-17.95,11.52-26.96,17.23
		c-11.74,7.44-24.07,13.92-36.38,20.38c-32.4,17.01-64.97,34.09-99.68,45.65c-10.38,3.46-23.38,5.83-30.95-2.07
		c67.84-32.35,124.52-88.89,197.49-106.91c6.74-1.66,13.65-2.99,20.57-2.57c13.26,0.8,26.2,8.72,31.7,20.81s2.46,27.89-7.99,36.09
		c-11.14,8.75-26.93,7.62-40.87,5.13c-5.38-0.96-11.47-2.6-13.84-7.52c-3.26-6.76,2.82-14.31,9.07-18.46
		c8.71-5.78,18.8-9.46,29.19-10.62c-1.73,5.76-3.1,11.99-1.21,17.7c1.9,5.7,8.25,10.31,13.89,8.25c4.82-1.76,7.1-7.48,6.95-12.6
		c-0.15-5.13-2.1-10.01-3.14-15.03c-0.33-1.6-0.54-3.38,0.36-4.74c1.14-1.72,3.49-2.01,5.55-2.14c40.47-2.51,82.01-4.91,120.7,7.21
		c11.57,3.62,22.7,8.5,34.95,15.1c18.03,7.36,34.5,18.08,50,29.87c36,27.39,67.08,60.62,100.93,90.63s71.59,57.35,115.14,69.58
		c1.71,0.48,3.58,0.93,5.22,0.24c2.17-0.92,3.08-3.42,3.9-5.63c4.78-12.92,13.66-23.85,20.29-35.93c6.63-12.08,11-26.75,5.87-39.54
		c-3.63-9.06-12.02-16.04-21.59-17.97c-9.56-1.93-20.01,1.26-26.86,8.2c-5.52,5.59-8.69,13.84-6.94,21.5
		c0.8,3.52,2.58,6.77,4.82,9.6c7.15,9.05,20.61,13.71,30.78,8.26c10.17-5.45,12.74-22.19,3.17-28.64
		c-7.91-5.33-19.16-1.51-25.76,5.37c-8.05,8.37-11.45,20.95-8.73,32.24c3.56,14.76,16.61,25.75,30.86,30.98
		c14.26,5.23,29.76,5.65,44.94,6.01c32.88,0.79,65.92,1.56,98.5-2.9"/>
</g>
</svg>
