<svg width="17" height="17" viewBox="0 0 17 17" fill="none" xmlns="http://www.w3.org/2000/svg">
<path d="M12.1794 7.7382V13.4895C12.1794 13.6536 12.1471 13.8162 12.0843 13.9679C12.0214 14.1196 11.9293 14.2574 11.8132 14.3735C11.6971 14.4896 11.5593 14.5817 11.4076 14.6446C11.2559 14.7074 11.0933 14.7397 10.9292 14.7397H3.42752C3.09593 14.7397 2.77791 14.608 2.54344 14.3735C2.30897 14.1391 2.17725 13.821 2.17725 13.4895V5.98782C2.17725 5.65623 2.30897 5.33822 2.54344 5.10375C2.77791 4.86927 3.09593 4.73755 3.42752 4.73755H8.66241" stroke="white" stroke-width="1.00189" stroke-linecap="round" stroke-linejoin="round"/>
<path d="M10.679 2.73743H14.1811V6.23962" stroke="white" stroke-width="1.00189" stroke-linecap="round" stroke-linejoin="round"/>
<path d="M7.17773 9.73986L13.9302 2.98743" stroke="white" stroke-width="1.00189" stroke-linecap="round" stroke-linejoin="round"/>
</svg>
